PathFileType	4	(X/Y/Z)	C:\Users\Basilio\Documents\Thesis Gigler\squatting_fais\c3dfiles\044\SLS_back_pre1\markers_experimental.trc
DataRate	CameraRate	NumFrames	NumMarkers	Units	OrigDataRate	OrigDataStartFrame	OrigNumFrames
200.000000	200.000000	4	68	mm	200.000000	864	1728
Frame#	Time	FHD			LBHD			RBHD			C7			T10			CLAV			LRAD			LRFIN			RSHO			RUPA1			RMUPA			RDUPA			RLEP			RMEP			RUL			LASI			RASI			USACR			LSACR			RSACR			LTHI1			LTHI2			LTHI3			LTHI4			LLFC			LMFC			LTIB1			LTIB2			LTIB3			LTIB4			LLMAL			LMMAL			LHEE			LMT1			LMT2			LMT5			RTHI			RTHI2			RTHI3			RTHI4			RLFC			RMFC			RTIB1			RTIB2			RTIB3			RTIB4			RLMAL			RMMAL			RHEE			RMT1			RMT2			RMT5			RUFIN			LSHO			LUUPA			LMUPA			LDUPA			LLEP			LMEP			LUL			*60			*61			*62			*63			*64			*65			*66			*67			
		X1	Y1	Z1	X2	Y2	Z2	X3	Y3	Z3	X4	Y4	Z4	X5	Y5	Z5	X6	Y6	Z6	X7	Y7	Z7	X8	Y8	Z8	X9	Y9	Z9	X10	Y10	Z10	X11	Y11	Z11	X12	Y12	Z12	X13	Y13	Z13	X14	Y14	Z14	X15	Y15	Z15	X16	Y16	Z16	X17	Y17	Z17	X18	Y18	Z18	X19	Y19	Z19	X20	Y20	Z20	X21	Y21	Z21	X22	Y22	Z22	X23	Y23	Z23	X24	Y24	Z24	X25	Y25	Z25	X26	Y26	Z26	X27	Y27	Z27	X28	Y28	Z28	X29	Y29	Z29	X30	Y30	Z30	X31	Y31	Z31	X32	Y32	Z32	X33	Y33	Z33	X34	Y34	Z34	X35	Y35	Z35	X36	Y36	Z36	X37	Y37	Z37	X38	Y38	Z38	X39	Y39	Z39	X40	Y40	Z40	X41	Y41	Z41	X42	Y42	Z42	X43	Y43	Z43	X44	Y44	Z44	X45	Y45	Z45	X46	Y46	Z46	X47	Y47	Z47	X48	Y48	Z48	X49	Y49	Z49	X50	Y50	Z50	X51	Y51	Z51	X52	Y52	Z52	X53	Y53	Z53	X54	Y54	Z54	X55	Y55	Z55	X56	Y56	Z56	X57	Y57	Z57	X58	Y58	Z58	X59	Y59	Z59	X60	Y60	Z60	X61	Y61	Z61	X62	Y62	Z62	X63	Y63	Z63	X64	Y64	Z64	X65	Y65	Z65	X66	Y66	Z66	X67	Y67	Z67	X68	Y68	Z68	

865	4.32	-68.21592712402345	1583.526123046875	-1101.722290039063	-203.8397827148438	1549.972778320313	-1173.768310546875	-244.2464752197266	1543.073486328125	-1011.976196289063	-283.2587585449219	1395.061401367188	-1088.023193359375	-401.8591308593751	1130.662109375	-1020.9345703125	-159.6342315673828	1316.636962890625	-1080.244018554688	nan	nan	nan	334.4859313964844	1314.009765625	-1100.182373046875	-195.1779937744141	1399.773559570313	-934.112487792969	-58.4630470275879	1369.591796875	-817.3269042968752	-24.05023765563966	1371.943481445313	-854.5560302734377	9.611949920654299	1359.239379882813	-806.9722900390627	71.67968750000001	1351.598754882813	-812.0067138671877	58.41164016723634	1268.546630859375	-811.0870361328127	313.7160339355469	1312.213989257813	-952.8923339843752	-327.3587341308594	890.4864501953127	-1099.278564453125	-324.9944458007813	878.6805419921877	-882.9331054687502	-463.6910705566407	994.9224853515627	-981.7618408203127	-485.2718505859376	967.7465820312502	-1006.778625488281	-477.5176696777345	969.0772705078127	-950.637145996094	-348.6209716796876	705.8403320312501	-1182.549682617188	-274.0124511718751	664.8584594726564	-1187.84326171875	-237.4401550292969	692.1303100585939	-1180.335815429688	-263.9799194335938	604.9183349609376	-1175.29833984375	-168.505355834961	486.1646118164064	-1155.191284179688	-158.2204742431641	492.9408264160157	-1037.469116210938	-180.3282623291016	324.7877502441407	-1052.984130859375	-222.6515808105469	277.7344970703126	-1114.531127929688	-191.5932769775391	271.9950866699219	-1077.326904296875	-233.8571014404297	212.2543029785157	-1034.539916992188	-322.3602294921876	112.5182800292969	-1066.369995117188	-298.6028442382813	132.9124450683594	-983.7547607421877	-387.9916992187501	96.80250549316409	-1012.089904785156	-180.6598663330078	61.7330665588379	-988.2158203125002	-180.212875366211	59.54689788818361	-1034.939819335938	-216.8144073486329	42.83403015136719	-1080.298828125	-388.7439270019532	636.7088623046876	-779.7263183593752	-333.4621887207032	596.7430419921876	-772.045593261719	-303.0071411132813	605.7142333984376	-781.4752197265627	-337.6819763183594	511.6719970703126	-778.6365356445315	-339.5556335449219	430.7214965820314	-786.4484863281252	-350.2399291992188	415.7580871582032	-901.671081542969	-428.861541748047	335.3347167968751	-807.081970214844	-520.5704345703126	385.364715576172	-769.8438720703127	-512.6460571289064	341.0908813476563	-780.7385864257815	-556.8596191406251	313.1709899902344	-806.588317871094	-723.5672607421876	328.8395690917969	-798.0703125000002	-708.6119384765626	307.4679565429688	-880.7448730468752	-766.7987060546876	372.0950012207032	-854.7996215820315	-735.5898437500001	165.1273345947266	-861.6044921875002	-740.7688598632814	156.3368835449219	-823.5952148437502	-776.6549072265627	192.3091278076172	-778.5430908203127	314.2789611816407	1285.308715820313	-1068.508544921875	-192.5258483886719	1373.259765625	-1228.333740234375	-50.32981491088869	1318.962646484375	-1336.328369140625	-15.46079730987549	1328.789672851563	-1300.86328125	19.08105850219727	1307.933471679688	-1347.478515625	79.84564208984376	1300.732543945313	-1342.394409179688	61.46519470214845	1222.228637695313	-1323.426025390625	325.4313659667969	1290.901000976563	-1200.527709960938	nan	nan	nan	nan	nan	nan	nan	nan	nan	nan	nan	nan	nan	nan	nan	nan	nan	nan	nan	nan	nan	nan	nan	nan	
866	4.325	-67.98715209960939	1582.336059570313	-1101.718994140625	-203.8077697753907	1549.074951171875	-1173.688720703125	-244.2917938232422	1542.655395507813	-1011.945922851563	-283.0434265136719	1394.424438476563	-1088.146240234375	-401.902801513672	1129.883422851563	-1020.907531738281	-159.4480438232422	1315.557250976563	-1080.375122070313	nan	nan	nan	334.7028503417969	1313.736206054688	-1100.135864257813	-195.2178192138672	1398.881225585938	-934.061950683594	-58.25669479370119	1368.861694335938	-817.4507446289065	-23.7534351348877	1371.143432617188	-854.643005371094	9.824162483215334	1358.580200195313	-806.886169433594	71.84740447998048	1351.154418945313	-812.0261840820315	58.95048141479494	1267.534912109375	-811.1739501953127	314.0892333984376	1311.784790039063	-952.5823974609377	-327.7112426757813	889.8033447265627	-1099.272338867188	-325.1498413085938	877.884460449219	-883.044616699219	-463.6459045410157	994.236511230469	-981.7005004882815	-485.4148864746095	967.3957519531252	-1006.772583007813	-477.3773193359376	968.4729614257815	-950.718200683594	-348.7658081054688	705.5938720703126	-1182.562377929688	-274.2019042968751	664.5726318359376	-1188.019287109375	-237.3886871337891	692.0364990234376	-1180.560180664063	-263.9263916015626	604.8274536132814	-1175.468139648438	-168.3583679199219	486.1185607910157	-1155.3671875	-157.9616241455078	492.8734741210939	-1037.779541015625	-180.0760498046875	324.5629882812501	-1053.215209960938	-222.7333679199219	277.7067565917969	-1114.710571289063	-191.1702880859375	270.8670349121094	-1077.179565429688	-233.8088684082032	212.2769775390626	-1034.697265625	-322.2972106933594	112.4441909790039	-1066.50537109375	-298.4968261718751	132.8600769042969	-983.9111938476565	-388.0027465820314	96.77658843994143	-1012.155029296875	-180.6484832763672	61.83030700683595	-988.349548339844	-180.2144165039063	59.62739562988283	-1034.993530273438	-216.8575134277344	42.82054519653321	-1080.292724609375	-388.7854614257814	636.2405395507814	-779.5945434570315	-333.3717956542969	595.9301147460939	-771.6520996093752	-303.1315917968751	604.7783203125001	-780.9131469726565	-337.6387329101563	511.2091369628907	-778.6997070312502	-339.5557556152344	430.2193908691407	-786.3247680664065	-350.2823181152344	415.2210388183595	-901.611511230469	-428.7457885742189	334.8299255371094	-806.9412841796877	-520.5756835937501	384.8129882812501	-769.5437622070315	-512.6095581054689	340.5801086425782	-780.5776367187502	-556.7370605468751	312.5996398925782	-806.5249633789065	-723.5993652343751	328.2108764648438	-797.9190063476565	-705.4531250000001	304.9121398925782	-880.151306152344	-766.7212524414064	371.5685119628907	-854.6804809570315	-735.4638061523439	164.549789428711	-861.4741821289065	-740.6929931640626	155.3324432373047	-823.4511718750002	-776.3925781250002	192.0248565673829	-778.3955078125002	314.9944458007813	1285.069580078125	-1068.396850585938	-192.4359741210938	1372.829711914063	-1228.32568359375	-49.74419021606447	1318.609130859375	-1336.313720703125	-15.27701568603516	1328.369140625	-1300.705322265625	19.38866806030274	1307.391723632813	-1347.257446289063	80.15390777587892	1300.273315429688	-1342.115112304688	61.85292053222658	1221.788818359375	-1323.126708984375	325.8816528320313	1290.616577148438	-1200.489990234375	nan	nan	nan	nan	nan	nan	nan	nan	nan	nan	nan	nan	nan	nan	nan	nan	nan	nan	nan	nan	nan	nan	nan	nan	
867	4.33	-68.07908630371095	1581.61279296875	-1101.684692382813	-203.579086303711	1548.213745117188	-1173.685424804688	-244.0527648925782	1542.056030273438	-1012.118408203125	-282.7792968750001	1393.896362304688	-1088.160888671875	-401.8719787597657	1129.357788085938	-1020.871154785156	-159.423568725586	1315.087280273438	-1080.355224609375	nan	nan	nan	335.0070190429688	1313.780395507813	-1100.146728515625	-194.5204162597657	1398.138793945313	-934.2817993164065	-57.94358444213869	1368.078857421875	-817.6175537109377	-23.24264144897461	1370.388549804688	-854.706726074219	10.00414562225342	1358.132690429688	-806.924987792969	72.21054077148439	1350.531005859375	-812.2758789062502	59.39108276367189	1267.119140625	-811.5186767578127	314.7100219726563	1311.4267578125	-952.6477050781252	-327.6792297363282	889.3666992187502	-1099.421752929688	-325.4249877929688	877.2968750000002	-882.8804931640627	-463.7486877441407	993.917419433594	-981.6262817382815	-485.6000061035157	967.0487060546877	-1006.700927734375	-477.2968139648439	968.0966796875002	-950.705505371094	-348.7209167480469	705.3188476562501	-1182.96875	-274.3290100097657	664.3931884765626	-1188.101684570313	-237.5097198486329	691.8220825195314	-1180.713745117188	-263.9700012207032	604.5913085937501	-1175.697631835938	-168.253173828125	486.0553283691407	-1155.567260742188	-157.5604248046875	492.8457946777345	-1038.060546875	-180.043930053711	324.5965270996094	-1053.459594726563	-222.6849517822266	277.6714782714844	-1114.883056640625	-191.0774078369141	270.9726257324219	-1077.615234375	-233.7189941406251	212.1989746093751	-1034.856201171875	-322.3056030273438	112.4442214965821	-1066.614990234375	-298.3877868652344	132.8218994140625	-984.0142822265627	-387.9952087402345	96.81276702880862	-1012.185913085938	-180.5946044921875	61.83131027221681	-988.2374267578127	-180.2263946533203	59.58351898193361	-1035.114013671875	-216.9734191894532	42.77733230590821	-1080.349609375	-389.0069580078126	635.8146362304689	-779.6172485351565	-333.4461059570313	595.4423217773439	-771.4732055664065	-303.0974426269532	604.5755004882814	-781.351745605469	-337.5466613769532	510.6114196777345	-778.4607543945315	-339.4905395507813	429.7346801757814	-786.259460449219	-350.2632446289063	414.773406982422	-901.4641723632815	-428.732147216797	334.3348693847657	-806.8748168945315	-520.6275024414064	384.3281860351564	-769.350769042969	-512.7973022460939	340.0840454101563	-780.3200683593752	-556.6995239257814	311.8679199218751	-806.3809204101565	-723.3499145507814	327.6483764648438	-797.6466064453127	-705.4780883789064	304.4869689941407	-879.9321899414065	-766.7388305664064	371.2228698730469	-854.590759277344	-735.6169433593751	164.0618286132813	-861.6098632812502	-740.7952880859376	154.9149780273438	-823.107360839844	-776.3879394531252	191.5970153808594	-778.2854003906252	315.2689208984376	1284.669189453125	-1068.379516601563	-192.2448883056641	1372.3046875	-1228.473022460938	-49.65880203247072	1318.226196289063	-1336.04052734375	-14.60254573822022	1327.670043945313	-1300.532104492188	19.73213958740235	1307.029418945313	-1347.129272460938	80.41929626464845	1299.888916015625	-1341.822631835938	62.33945846557619	1221.611083984375	-1322.990478515625	326.1016235351563	1290.657836914063	-1200.444946289063	nan	nan	nan	nan	nan	nan	nan	nan	nan	nan	nan	nan	nan	nan	nan	nan	nan	nan	nan	nan	nan	nan	nan	nan	
868	4.335	-67.83058166503908	1581.105834960938	-1101.860229492188	-203.5769042968751	1547.080200195313	-1173.936401367188	-243.6528778076172	1540.9072265625	-1012.332763671875	-282.3623352050782	1392.70458984375	-1088.111206054688	-401.8730468750001	1128.870971679688	-1020.8251953125	-159.053939819336	1314.481079101563	-1080.629638671875	nan	nan	nan	335.2749938964844	1313.608520507813	-1099.99951171875	-194.2678680419922	1397.496826171875	-934.5167236328127	-57.74773025512697	1367.537475585938	-817.7614746093752	-22.9172534942627	1369.855346679688	-855.058288574219	10.37399101257324	1357.492919921875	-807.2483520507815	72.52068328857423	1349.80419921875	-812.3050537109377	59.66439056396486	1266.681396484375	-811.6233520507815	315.0850219726563	1311.176513671875	-952.574157714844	-327.8438415527344	888.8354492187502	-1099.477416992188	-325.5412292480469	876.9779052734377	-882.9258422851565	-463.8533325195314	993.315612792969	-981.5224609375002	-485.671356201172	966.355163574219	-1006.684387207031	-477.5607910156251	967.6444091796877	-950.6221313476565	-348.9641113281251	705.0413818359376	-1182.916748046875	-274.5120849609376	664.1502075195314	-1188.15673828125	-238.4922790527344	691.9760742187501	-1180.755615234375	-263.8523864746094	604.5036010742189	-1175.897216796875	-168.145751953125	485.9281616210939	-1155.717529296875	-157.3219604492188	492.7544860839845	-1038.315795898438	-179.9856567382813	324.4722595214844	-1053.64697265625	-222.7717285156251	277.6141662597657	-1114.992431640625	-190.9790344238282	270.8322143554688	-1077.811645507813	-233.5575103759766	212.1881256103516	-1035.1005859375	-322.3416442871094	112.3938140869141	-1066.6884765625	-298.3447265625001	132.8200378417969	-984.1912231445315	-387.991912841797	96.80439758300784	-1012.253967285156	-180.5906982421875	61.86084365844728	-988.3352050781252	-180.2352905273438	59.59152221679689	-1035.116333007813	-216.9417419433594	42.74827194213868	-1080.341918945313	-389.1082458496095	635.5253906250001	-779.7175903320315	-333.4117126464844	594.9107666015626	-771.4558105468752	-303.1885681152344	604.1095581054689	-781.2939453125002	-337.4846191406251	510.2230834960939	-778.4099731445315	-339.5936584472657	429.5682678222657	-786.3792724609377	-350.2705078125001	414.4323730468751	-901.3867797851565	-428.7682495117189	333.7969970703126	-806.780944824219	-520.4424438476564	383.8325805664063	-769.2680664062502	-512.7951660156251	339.7838439941407	-780.2403564453127	-556.7257690429689	311.5573425292969	-806.1159667968752	-723.3110961914064	327.2517089843751	-797.4180908203127	-705.4832153320314	304.0556335449219	-879.7138671875002	-766.7994384765626	370.8399047851563	-854.477478027344	-734.9340820312501	163.248779296875	-860.634460449219	-740.6021728515626	154.366455078125	-823.2171020507815	-776.3152465820315	191.1227416992188	-778.099548339844	314.3693237304688	1285.241455078125	-1068.369018554688	-191.9693908691407	1371.462524414063	-1228.674926757813	-49.18310928344728	1317.52197265625	-1336.068969726563	-14.28127670288086	1327.268798828125	-1300.4921875	19.97833633422852	1306.66796875	-1346.971801757813	80.86585998535158	1299.308349609375	-1341.564575195313	62.75312423706056	1221.278076171875	-1322.817626953125	326.6406860351563	1290.517944335938	-1200.46533203125	nan	nan	nan	nan	nan	nan	nan	nan	nan	nan	nan	nan	nan	nan	nan	nan	nan	nan	nan	nan	nan	nan	nan	nan	
